<svg id="Layer_1" data-name="Layer 1" xmlns="http://www.w3.org/2000/svg" viewBox="0 0 242.28 51.71"><defs><style>.cls-1{fill:#da4b58;}</style></defs><title>logo</title><path class="cls-1" d="M77.22,11.15a4.45,4.45,0,0,0,.18.69,2.06,2.06,0,0,1,.11.69,1.25,1.25,0,0,1,0,.29.18.18,0,0,1-.2.13l-.34,0-.34,0a6.16,6.16,0,0,0-2.76.62,7.45,7.45,0,0,0-2.17,1.6,7.61,7.61,0,0,0-1.44,2.19,5.9,5.9,0,0,0-.52,2.35A4.13,4.13,0,0,0,70.43,22a4,4,0,0,0,2.32,1.52,6.41,6.41,0,0,0,1.83.29q.39-1.08.77-2.45t.82-2.86q.44-1.49.95-3a25.31,25.31,0,0,1,1.19-3,18.74,18.74,0,0,1,1.57-2.69,11.21,11.21,0,0,1,2-2.2,9.1,9.1,0,0,1,2.61-1.5,9.28,9.28,0,0,1,3.3-.56A1.51,1.51,0,0,1,88.91,6a3,3,0,0,1,.67,1.06,6.68,6.68,0,0,1,.36,1.4,9.71,9.71,0,0,1,.11,1.42,11.18,11.18,0,0,1-.6,3.61A14.78,14.78,0,0,1,87.74,17Q87,18.2,86,19.43a22.16,22.16,0,0,1-2.09,2.34,21.52,21.52,0,0,1-2.47,2.06,13.41,13.41,0,0,1-2.89,1.57q-.75,1.37-1.4,2.66t-1.37,2.53l.49.1,2.65.2q1.31.1,2.61.1l.88,0,.85,0a6.22,6.22,0,0,1,.8,0q.37,0,.38.34a1.83,1.83,0,0,1-.31.67,6.22,6.22,0,0,1-.85,1.06,6.87,6.87,0,0,1-1.22,1,2.68,2.68,0,0,1-1.47.44H79.7a2.75,2.75,0,0,1-.47,0l-.33-.07-.44-.11-.82-.2-1.4-.28q-.95-.16-1.93-.42a7.14,7.14,0,0,0-1.83-.26,4,4,0,0,0-1,.15q-.56.15-1.13.34T69.24,34a8.52,8.52,0,0,1-1,.36.45.45,0,0,1-.2,0,.75.75,0,0,1-.38-.13,2.35,2.35,0,0,1-.42-.34,3.51,3.51,0,0,1-.38-.44,1,1,0,0,1-.2-.43q.29-.16.62-.31t.62-.31l.72-.33,1-.51,1.13-.54q.57-.26,1-.42l1.11-2.17A19.86,19.86,0,0,0,74,25.94a1.75,1.75,0,0,1-.34,0h-.34a5.22,5.22,0,0,1-2.56-.62,6.42,6.42,0,0,1-1.93-1.62,7.39,7.39,0,0,1-1.22-2.22,7.48,7.48,0,0,1-.43-2.47,6.34,6.34,0,0,1,.88-3.27,9.35,9.35,0,0,1,2.29-2.61,11.15,11.15,0,0,1,3.1-1.73,9.68,9.68,0,0,1,3.33-.62A.41.41,0,0,1,77.22,11.15Zm9-2.84a1.15,1.15,0,0,0-.82.49A6.6,6.6,0,0,0,84.5,10q-.46.75-.85,1.53T83,13.06q-.31.7-.47,1.13-.82,2.06-1.45,4.13t-1.49,4.13a12.21,12.21,0,0,0,1.86-1.22,14.48,14.48,0,0,0,3-3.23q.6-.9,1.09-1.78a13.53,13.53,0,0,0,1.08-2.61A9.59,9.59,0,0,0,87,10.89c0-.2,0-.44,0-.74a5.07,5.07,0,0,0-.1-.83,3.39,3.39,0,0,0-.21-.69A.48.48,0,0,0,86.27,8.31Z"/><path class="cls-1" d="M92.11,20.13a1.07,1.07,0,0,1,.59.15.42.42,0,0,1,.23.34.66.66,0,0,1-.2.39,12.13,12.13,0,0,0-.93,1.39q-.67,1.1-1.36,2.5a29.44,29.44,0,0,0-1.22,2.89,7.72,7.72,0,0,0-.54,2.56q0,.62.49.62a1.53,1.53,0,0,0,.74-.26,8.06,8.06,0,0,0,.95-.67q.51-.41,1-.88l1-.88q.46-.41.82-.67a1.12,1.12,0,0,1,.52-.26q.46,0,.46.52a2.07,2.07,0,0,1-.1.59,4.09,4.09,0,0,1-.26.65,4.44,4.44,0,0,1-.38.67,3.79,3.79,0,0,1-.44.54A16.78,16.78,0,0,1,90,33.45a6.41,6.41,0,0,1-3.4,1.08,1.81,1.81,0,0,1-1.67-.69,3.38,3.38,0,0,1-.42-1.8,14.42,14.42,0,0,1,.28-2.6,27.85,27.85,0,0,1,.74-3,24.52,24.52,0,0,1,1.06-2.86,13.12,13.12,0,0,1,1.26-2.27,1.79,1.79,0,0,1,.74-.49,8,8,0,0,1,1.21-.39,11.9,11.9,0,0,1,1.32-.24A9,9,0,0,1,92.11,20.13Zm-2-3.66a1.72,1.72,0,0,1,.28-.93,2.72,2.72,0,0,1,.7-.75,3.89,3.89,0,0,1,1-.51,3.1,3.1,0,0,1,1.06-.2,1.94,1.94,0,0,1,1.4.47A1.48,1.48,0,0,1,95,15.66a2.07,2.07,0,0,1-.7,1.5,3.5,3.5,0,0,1-1.58.91,3,3,0,0,1-.72.1,1.84,1.84,0,0,1-1.39-.52A1.65,1.65,0,0,1,90.09,16.47Z"/><path class="cls-1" d="M95,21.4q.62-2.25,1.27-4.43t1.42-4.13a27.05,27.05,0,0,1,1.75-3.66,14.56,14.56,0,0,1,2.32-3,5.73,5.73,0,0,1,1.5-1.08,4.31,4.31,0,0,1,1.8-.46,2.34,2.34,0,0,1,1.21.33,2.74,2.74,0,0,1,.87.87A5.43,5.43,0,0,1,107.68,7,6.48,6.48,0,0,1,108,8.21a8.74,8.74,0,0,1,.08,1.11,11.41,11.41,0,0,1-.39,2.92,22.1,22.1,0,0,1-1,3,25.82,25.82,0,0,1-1.62,3,32.13,32.13,0,0,1-2,2.89,32,32,0,0,1-2.34,2.65A28,28,0,0,1,98.12,26q-.07.29-.29,1t-.49,1.68q-.26.95-.56,2l-.52,1.85A12.27,12.27,0,0,0,98,31.79a18.38,18.38,0,0,0,1.76-1.08q.65-.46,1.34-1l1.27-1.09,1-.87a1.37,1.37,0,0,1,.6-.36q.46,0,.46.52a2.77,2.77,0,0,1-.34,1.26,7.87,7.87,0,0,1-.87,1.32,13,13,0,0,1-1.09,1.21q-.57.56-1,.95a10,10,0,0,1-1.06.78q-.61.39-1.24.75t-1.29.65l-1.21.52a7.16,7.16,0,0,1-.95.36q-.33,1.24-.7,2.55t-.64,2.51q.36,1,.8,2a5.53,5.53,0,0,1,.44,2.14A6.29,6.29,0,0,1,93.39,50,7.9,7.9,0,0,1,88,51.71a1.11,1.11,0,0,1-.69-.2,1,1,0,0,1-.26-.82A2.36,2.36,0,0,1,87.2,50q.12-.36.21-.72l.6-2.17.54-2,.52-1.94q.26-1,.52-2.06.07-.33.15-.64c.06-.21.1-.43.15-.67l-.31-.88q-.15-.42-.24-.78a4.5,4.5,0,0,1-.13-2.48q.36-1.44,2.48-2.09L92,32.28ZM90.87,37a.75.75,0,0,0,.07-.24,1,1,0,0,1,0-.21L91,36.2q-.36.07-.29.31ZM93.09,45a1.77,1.77,0,0,0-.1.34l-.07.34q-.13.49-.25,1t-.24.93a.35.35,0,0,0,.26-.1,2.14,2.14,0,0,0,.2-.23,5.08,5.08,0,0,0,.39-1,3.77,3.77,0,0,0,.11-.72,2.16,2.16,0,0,0,0-.6,4.54,4.54,0,0,1-.1-.64,1.77,1.77,0,0,0-.1.34ZM105.21,8.08q-.36,0-.87.64a11.53,11.53,0,0,0-1.09,1.75Q102.66,11.57,102,13t-1.29,3.14q-.64,1.67-1.22,3.43t-1,3.43a16.86,16.86,0,0,0,3.12-3.38,25.57,25.57,0,0,0,2.53-4.39A17.32,17.32,0,0,0,105,13a16.76,16.76,0,0,0,.51-2.24,10.39,10.39,0,0,0,.1-1.4,2.62,2.62,0,0,0-.11-1A.44.44,0,0,0,105.21,8.08Z"/><path class="cls-1" d="M111.09,24.08c0-.09,0-.2,0-.33a1.3,1.3,0,0,0-.1-.39.82.82,0,0,0-.24-.33.78.78,0,0,0-.49-.13,2.59,2.59,0,0,0-1.55.51,4.62,4.62,0,0,0-1.22,1.36,8,8,0,0,0-.85,2,11.5,11.5,0,0,0-.42,2.35,2.6,2.6,0,0,0,.52,1.73,2.06,2.06,0,0,0,1.67.62,5.24,5.24,0,0,0,1.58-.28,10.73,10.73,0,0,0,1.78-.77,17.12,17.12,0,0,0,1.81-1.13,14.6,14.6,0,0,0,1.65-1.36,5.13,5.13,0,0,0,.52-.44.84.84,0,0,1,.55-.28.35.35,0,0,1,.31.24,1.19,1.19,0,0,1,.11.51,2.73,2.73,0,0,1-.39,1.27,7.25,7.25,0,0,1-1.08,1.45,14.05,14.05,0,0,1-1.6,1.45,13.6,13.6,0,0,1-1.94,1.27,11.79,11.79,0,0,1-2.14.9,7.28,7.28,0,0,1-2.16.34,7.41,7.41,0,0,1-2.4-.34,4.42,4.42,0,0,1-1.63-.95,3.64,3.64,0,0,1-.93-1.4,4.83,4.83,0,0,1-.29-1.68,9.58,9.58,0,0,1,.78-3.71,12.09,12.09,0,0,1,2.16-3.41,11.61,11.61,0,0,1,3.2-2.51,8.24,8.24,0,0,1,4-1,2.8,2.8,0,0,1,1.36.31,3.24,3.24,0,0,1,1,.78,3.09,3.09,0,0,1,.57,1,3.33,3.33,0,0,1,.18,1,3.21,3.21,0,0,1-.41,1.42,9.11,9.11,0,0,1-1.06,1.6,16.28,16.28,0,0,1-1.47,1.57,14.44,14.44,0,0,1-1.67,1.36,10.83,10.83,0,0,1-1.63.95,3.33,3.33,0,0,1-1.34.36h-.2a1.46,1.46,0,0,1-.39-.07,1.52,1.52,0,0,1-1-.65,1.62,1.62,0,0,1-.31-.72q0-.23.29-.29a5.42,5.42,0,0,0,1.73-.52,7.22,7.22,0,0,0,1.58-1,6.18,6.18,0,0,0,1.16-1.31A2.49,2.49,0,0,0,111.09,24.08Z"/><path class="cls-1" d="M143,8.27a1.46,1.46,0,0,1,.91.28,1.15,1.15,0,0,1,.36,1,5.22,5.22,0,0,1-.15,1.37,1.94,1.94,0,0,1-.43.82,1.89,1.89,0,0,1-.69.46,7.09,7.09,0,0,1-.93.29,18.24,18.24,0,0,1-2.55.6l-2.92.51q-1.49.26-2.91.56a17.86,17.86,0,0,0-2.53.7,6.08,6.08,0,0,0-1.8,1,1.75,1.75,0,0,0-.69,1.39,2,2,0,0,0,.38,1.18,3.65,3.65,0,0,0,.93.9,5,5,0,0,0,1.16.59,3.32,3.32,0,0,0,1.09.21,1.27,1.27,0,0,0,.42-.08,1.2,1.2,0,0,1,.39-.08.47.47,0,0,1,.39.28,1.24,1.24,0,0,1,.16.64.83.83,0,0,1-.49.69,12.86,12.86,0,0,1-1.19.62q-.7.33-1.49.77A5.5,5.5,0,0,0,129,24a4.76,4.76,0,0,0-1,1.76,5.84,5.84,0,0,0-.1,2.58,3.93,3.93,0,0,0,.39,1.36A4.48,4.48,0,0,0,129.2,31a4.3,4.3,0,0,0,1.24.87,3.55,3.55,0,0,0,1.52.33,8.88,8.88,0,0,0,3.13-.47,11,11,0,0,0,2.09-1,8.21,8.21,0,0,0,1.11-.85q.46-.42,1-1a4.85,4.85,0,0,1,.52-.46.79.79,0,0,1,.42-.2.9.9,0,0,1,.62.28.8.8,0,0,1,.29.57.37.37,0,0,1,0,.16,8,8,0,0,1-1.7,2.32,12.06,12.06,0,0,1-2.55,1.88,16.66,16.66,0,0,1-3.09,1.32,16.27,16.27,0,0,1-3.28.69,12.17,12.17,0,0,1-3.15-.08,6.89,6.89,0,0,1-2.66-1,5.42,5.42,0,0,1-1.83-2,6.28,6.28,0,0,1-.69-3.07A6.87,6.87,0,0,1,122.6,27a9.24,9.24,0,0,1,1.11-2.16,10.54,10.54,0,0,1,3.54-3.2c.24-.13.36-.25.36-.36s-.17-.37-.52-.52a5.12,5.12,0,0,1-1.75-1.21,2.82,2.82,0,0,1-.6-1.93,4.2,4.2,0,0,1,1-2.65,10.52,10.52,0,0,1,2.56-2.27,21.34,21.34,0,0,1,3.59-1.84,38.67,38.67,0,0,1,4-1.39,33.76,33.76,0,0,1,3.89-.86A20.79,20.79,0,0,1,143,8.27Z"/><path class="cls-1" d="M141.4,21.34q0-.26.39-.49a3.49,3.49,0,0,1,.77-.29q.47-.13,1-.23t.95-.15a7.33,7.33,0,0,1,.75,0,1.77,1.77,0,0,1,.7.15,1.35,1.35,0,0,1,.51.34,11.38,11.38,0,0,0,.33,1.13q.2.57.57,1.47t1,2.11l2-1.93q1-1,2.07-2.06l.41-.42a1.66,1.66,0,0,1,.41-.33,1.88,1.88,0,0,1,.52-.2,3.57,3.57,0,0,1,.75-.07,6.16,6.16,0,0,1,1.22.18c.38.1.59.19.64.28s-.08.44-.42.85A25.31,25.31,0,0,1,153.51,24q-1.73,1.52-4,3.54.33.56.69,1.11t.74,1a6.53,6.53,0,0,0,.77.85,2.22,2.22,0,0,0,.78.49,2.44,2.44,0,0,0,1.45,0,6.55,6.55,0,0,0,1.55-.67,11.58,11.58,0,0,0,1.52-1.06,14,14,0,0,0,1.29-1.19q.78-.78,1.14-.78t.46.52a2.88,2.88,0,0,1-.38,1.26,5.31,5.31,0,0,1-.8,1.19A14.62,14.62,0,0,1,155,33.45a7.52,7.52,0,0,1-3.61,1.08,4.17,4.17,0,0,1-2.81-1.08,15.75,15.75,0,0,1-2.42-2.71q-1.24,1.14-1.93,1.91A11,11,0,0,1,143,33.85a2.4,2.4,0,0,1-1.22.6,4.56,4.56,0,0,1-1.55-.25q-.33-.06-.38-.31a.48.48,0,0,1,0-.34,2.83,2.83,0,0,0,.29-.34l.29-.38q.82-.95,1.89-2t2.35-2.19q-.65-1-1.21-2t-1-2q-.44-1-.73-1.81A8.76,8.76,0,0,1,141.4,21.34Z"/><path class="cls-1" d="M165.66,9.42a1.92,1.92,0,0,1,1-.56,10.47,10.47,0,0,1,2.66-.33.93.93,0,0,1,.67.15.76.76,0,0,1,.26.46,1.29,1.29,0,0,1,0,.57,4.28,4.28,0,0,1-.18.52,25.38,25.38,0,0,0-1.19,2.45q-.54,1.27-1.19,2.74,1.63,1.14,2.5,1.68t1.24.8q.37.26.41.38a1.27,1.27,0,0,1,0,.41,2.13,2.13,0,0,1-.33.75,1.51,1.51,0,0,1-.57.44,1.45,1.45,0,0,1-1,0,2.91,2.91,0,0,1-1.14-.46l-.41-.29a6,6,0,0,0-.6-.39q-.29-.16-.59-.36t-.65-.39l-.23.55q-.29.75-.62,1.49T165,21.53l-1.13,2.71q-.54,1.31-1,2.47t-.67,2.11a6.65,6.65,0,0,0-.24,1.63c0,.3.09.48.28.52a1.17,1.17,0,0,0,.7-.11,5.07,5.07,0,0,0,.9-.51q.47-.33.83-.62a7.91,7.91,0,0,0,.57-.55q.37-.39.8-.8a9.43,9.43,0,0,1,.83-.72,1.23,1.23,0,0,1,.64-.31.44.44,0,0,1,.42.41,1.88,1.88,0,0,1-.1.75,4.67,4.67,0,0,1-.34.8,4.83,4.83,0,0,1-.31.52,18.89,18.89,0,0,1-1.5,1.76A12.77,12.77,0,0,1,164,33.11a8.57,8.57,0,0,1-2,1.06,5.5,5.5,0,0,1-2.14.36,4.41,4.41,0,0,1-.56,0,1.55,1.55,0,0,1-.62-.21,1.49,1.49,0,0,1-.7-.83,3.69,3.69,0,0,1-.21-1.29c0-.17,0-.35,0-.54a1.81,1.81,0,0,1,0-.54,18.78,18.78,0,0,1,.75-3.87q.62-2.11,1.39-4.2t1.57-4q.8-1.89,1.36-3.23l-3.15-2-3-1.81q-1.39-.83-2.48-1.45t-1.68-.88a.91.91,0,0,1-.52-.62,4.13,4.13,0,0,1-.2-1.08,8.49,8.49,0,0,1,0-1.18,8.59,8.59,0,0,1,.11-.91.84.84,0,0,1,.18-.55.43.43,0,0,1,.41-.07,13.87,13.87,0,0,1,3.87,2.22q2.92,2.06,7.59,5.42.26-.62.46-1.11l.36-.9q.16-.41.34-.77A5.06,5.06,0,0,1,165.66,9.42Z"/><path class="cls-1" d="M174.64,24.08c0-.09,0-.2,0-.33a1.3,1.3,0,0,0-.1-.39.82.82,0,0,0-.24-.33.78.78,0,0,0-.49-.13,2.59,2.59,0,0,0-1.55.51A4.62,4.62,0,0,0,171,24.77a8,8,0,0,0-.85,2,11.5,11.5,0,0,0-.42,2.35,2.6,2.6,0,0,0,.52,1.73,2.06,2.06,0,0,0,1.67.62,5.24,5.24,0,0,0,1.58-.28,10.73,10.73,0,0,0,1.78-.77,17.12,17.12,0,0,0,1.81-1.13,14.6,14.6,0,0,0,1.65-1.36,5.13,5.13,0,0,0,.52-.44.84.84,0,0,1,.55-.28.35.35,0,0,1,.31.24,1.19,1.19,0,0,1,.11.51,2.73,2.73,0,0,1-.39,1.27,7.25,7.25,0,0,1-1.08,1.45,14.05,14.05,0,0,1-1.6,1.45,13.6,13.6,0,0,1-1.94,1.27,11.79,11.79,0,0,1-2.14.9,7.28,7.28,0,0,1-2.16.34,7.41,7.41,0,0,1-2.4-.34,4.42,4.42,0,0,1-1.63-.95,3.64,3.64,0,0,1-.93-1.4,4.83,4.83,0,0,1-.29-1.68,9.58,9.58,0,0,1,.78-3.71,12.09,12.09,0,0,1,2.16-3.41,11.61,11.61,0,0,1,3.2-2.51,8.24,8.24,0,0,1,4-1,2.8,2.8,0,0,1,1.36.31,3.24,3.24,0,0,1,1,.78,3.09,3.09,0,0,1,.57,1,3.33,3.33,0,0,1,.18,1,3.21,3.21,0,0,1-.41,1.42,9.11,9.11,0,0,1-1.06,1.6,16.28,16.28,0,0,1-1.47,1.57,14.44,14.44,0,0,1-1.67,1.36,10.83,10.83,0,0,1-1.63.95,3.33,3.33,0,0,1-1.34.36h-.2a1.46,1.46,0,0,1-.39-.07,1.52,1.52,0,0,1-1-.65,1.62,1.62,0,0,1-.31-.72q0-.23.29-.29a5.42,5.42,0,0,0,1.73-.52,7.22,7.22,0,0,0,1.58-1,6.18,6.18,0,0,0,1.16-1.31A2.49,2.49,0,0,0,174.64,24.08Z"/><path class="cls-1" d="M194.73,27.35q.46,0,.46.52a2.81,2.81,0,0,1-.38,1.27,5.42,5.42,0,0,1-.8,1.18,16.78,16.78,0,0,1-3.56,3.13,6.37,6.37,0,0,1-3.36,1.08,1.8,1.8,0,0,1-1.73-.77,3.9,3.9,0,0,1-.42-1.91,5.42,5.42,0,0,1,.41-2,14,14,0,0,1,.95-1.94,19.37,19.37,0,0,1,1.09-1.67q.56-.75.88-1.24a1.12,1.12,0,0,0,.26-.52.09.09,0,0,0-.1-.1,2.87,2.87,0,0,0-1.24.42,8.5,8.5,0,0,0-1.68,1.26,14.55,14.55,0,0,0-1.78,2,13.39,13.39,0,0,0-1.53,2.73,15.23,15.23,0,0,1-1.4,2.6A2.2,2.2,0,0,1,179,34.47a2.64,2.64,0,0,1-1.5-.59q0-.49.15-1.29t.39-2q.28-1.18.75-2.81T180,24q.29-.85.52-1.58t.39-1.39a1.07,1.07,0,0,1,.54-.65,4.22,4.22,0,0,1,1-.42,9.29,9.29,0,0,1,1.24-.24,8.81,8.81,0,0,1,1.09-.08,3.16,3.16,0,0,1,.88.11q.39.12.39.67a2,2,0,0,1-.2.87l-.42.87q-.23.52-.54,1.13t-.67,1.36A15.13,15.13,0,0,1,186,22.92,14.11,14.11,0,0,1,188,21.53a10.72,10.72,0,0,1,2-.93,6,6,0,0,1,1.93-.34,2.62,2.62,0,0,1,1.53.34,1.1,1.1,0,0,1,.46.93,2.73,2.73,0,0,1-.2.95,8.35,8.35,0,0,1-.52,1.11,14.34,14.34,0,0,1-.95,1.55l-1.09,1.58q-.54.78-1,1.52a9.8,9.8,0,0,0-.72,1.36,2.18,2.18,0,0,0-.18.47q0,.21-.08.41a.47.47,0,0,0,.52.49,2.18,2.18,0,0,0,1.13-.57q.74-.57,1.52-1.24l1.45-1.24A2,2,0,0,1,194.73,27.35Z"/><path class="cls-1" d="M209,7.75a1.08,1.08,0,0,1,.54-.65,4.27,4.27,0,0,1,1-.42,8.71,8.71,0,0,1,1.22-.24,9,9,0,0,1,1.13-.08,3.62,3.62,0,0,1,.88.1q.39.1.39.65a1.48,1.48,0,0,1-.07.46c0,.13-.09.27-.13.42q-.33.82-1,2.34t-1.53,3.45q-.85,1.93-1.78,4.1t-1.75,4.23q-.56,1.44-1,2.74t-.85,2.4q-.36,1.09-.57,1.89a5.18,5.18,0,0,0-.21,1.22q0,.62.49.62a1.53,1.53,0,0,0,.74-.26,7.12,7.12,0,0,0,.93-.67l1-.88,1-.88q.46-.41.82-.67a1.12,1.12,0,0,1,.52-.26q.46,0,.46.52a3.32,3.32,0,0,1-.69,1.89,11.21,11.21,0,0,1-1.63,1.85A15.32,15.32,0,0,1,207,33.13a10.78,10.78,0,0,1-1.62.91,5.62,5.62,0,0,1-2.22.49,2.51,2.51,0,0,1-1.18-.23,1.53,1.53,0,0,1-.65-.69,2.32,2.32,0,0,1-.26-1q-.49.36-1.11.75a9.25,9.25,0,0,1-1.31.69,9.55,9.55,0,0,1-1.39.47,3.61,3.61,0,0,1-1.29.11,2.73,2.73,0,0,1-1.19-.31,3.14,3.14,0,0,1-.86-.69,3.39,3.39,0,0,1-.57-.9,7,7,0,0,1-.34-1q-.07-.33-.1-.64a5.51,5.51,0,0,1,0-.57,7.66,7.66,0,0,1,.29-2,10.63,10.63,0,0,1,.83-2.09,12.53,12.53,0,0,1,1.31-2,14.43,14.43,0,0,1,1.68-1.78,12.33,12.33,0,0,1,2.68-1.78,8.91,8.91,0,0,1,3-.87,2.84,2.84,0,0,1,1.6.36l.72-1.83q1.44-3.56,2.51-6.25A35.53,35.53,0,0,0,209,7.75ZM198.06,31a1.55,1.55,0,0,0,.65.08,3.67,3.67,0,0,0,.88-.15,7.42,7.42,0,0,0,.88-.31,2.54,2.54,0,0,0,.65-.38q.26-1.37.65-2.81t1-3.17l.24-.67.24-.67a2,2,0,0,0-.88,0l-.65.15a3.33,3.33,0,0,0-.59.23,4.09,4.09,0,0,0-.64.41q-.34.26-.8.65a4,4,0,0,0-.72.83,11.5,11.5,0,0,0-.82,1.37,12,12,0,0,0-.67,1.58,4.08,4.08,0,0,0-.24,1.5,1.79,1.79,0,0,0,.18.75A1.17,1.17,0,0,0,198.06,31Z"/><path class="cls-1" d="M217.82,24.08c0-.09,0-.2,0-.33a1.3,1.3,0,0,0-.1-.39.82.82,0,0,0-.24-.33.78.78,0,0,0-.49-.13,2.59,2.59,0,0,0-1.55.51,4.62,4.62,0,0,0-1.22,1.36,8,8,0,0,0-.85,2,11.5,11.5,0,0,0-.42,2.35,2.6,2.6,0,0,0,.52,1.73,2.06,2.06,0,0,0,1.67.62,5.24,5.24,0,0,0,1.58-.28,10.73,10.73,0,0,0,1.78-.77,17.12,17.12,0,0,0,1.81-1.13,14.6,14.6,0,0,0,1.65-1.36,5.13,5.13,0,0,0,.52-.44.84.84,0,0,1,.55-.28.35.35,0,0,1,.31.24,1.19,1.19,0,0,1,.11.51,2.73,2.73,0,0,1-.39,1.27A7.25,7.25,0,0,1,222,30.66a14.05,14.05,0,0,1-1.6,1.45,13.6,13.6,0,0,1-1.94,1.27,11.79,11.79,0,0,1-2.14.9,7.28,7.28,0,0,1-2.16.34,7.41,7.41,0,0,1-2.4-.34,4.42,4.42,0,0,1-1.63-.95,3.64,3.64,0,0,1-.93-1.4,4.83,4.83,0,0,1-.29-1.68,9.58,9.58,0,0,1,.78-3.71,12.09,12.09,0,0,1,2.16-3.41,11.61,11.61,0,0,1,3.2-2.51,8.24,8.24,0,0,1,4-1,2.8,2.8,0,0,1,1.36.31,3.24,3.24,0,0,1,1,.78,3.09,3.09,0,0,1,.57,1,3.33,3.33,0,0,1,.18,1,3.21,3.21,0,0,1-.41,1.42,9.11,9.11,0,0,1-1.06,1.6,16.28,16.28,0,0,1-1.47,1.57,14.44,14.44,0,0,1-1.67,1.36,10.83,10.83,0,0,1-1.63.95,3.33,3.33,0,0,1-1.34.36h-.2a1.46,1.46,0,0,1-.39-.07,1.52,1.52,0,0,1-1-.65,1.62,1.62,0,0,1-.31-.72q0-.23.29-.29a5.42,5.42,0,0,0,1.73-.52,7.22,7.22,0,0,0,1.58-1,6.18,6.18,0,0,0,1.16-1.31A2.49,2.49,0,0,0,217.82,24.08Z"/><path class="cls-1" d="M237.08,7.75a1.08,1.08,0,0,1,.54-.65,4.27,4.27,0,0,1,1-.42,8.71,8.71,0,0,1,1.22-.24A9,9,0,0,1,241,6.35a3.62,3.62,0,0,1,.88.1q.39.1.39.65a1.48,1.48,0,0,1-.07.46c0,.13-.09.27-.13.42q-.33.82-1,2.34t-1.53,3.45q-.85,1.93-1.78,4.1T236,22.09q-.56,1.44-1,2.74t-.85,2.4q-.36,1.09-.57,1.89a5.18,5.18,0,0,0-.21,1.22q0,.62.49.62a1.53,1.53,0,0,0,.74-.26,7.12,7.12,0,0,0,.93-.67l1-.88,1-.88q.46-.41.82-.67a1.12,1.12,0,0,1,.52-.26q.46,0,.46.52a3.32,3.32,0,0,1-.69,1.89A11.21,11.21,0,0,1,237,31.61,15.32,15.32,0,0,1,235,33.13a10.78,10.78,0,0,1-1.62.91,5.62,5.62,0,0,1-2.22.49A2.51,2.51,0,0,1,230,34.3a1.53,1.53,0,0,1-.65-.69,2.32,2.32,0,0,1-.26-1q-.49.36-1.11.75a9.25,9.25,0,0,1-1.31.69,9.55,9.55,0,0,1-1.39.47,3.61,3.61,0,0,1-1.29.11,2.73,2.73,0,0,1-1.19-.31,3.14,3.14,0,0,1-.86-.69,3.39,3.39,0,0,1-.57-.9,7,7,0,0,1-.34-1q-.07-.33-.1-.64a5.51,5.51,0,0,1,0-.57,7.66,7.66,0,0,1,.29-2,10.63,10.63,0,0,1,.83-2.09,12.53,12.53,0,0,1,1.31-2A14.43,14.43,0,0,1,225,22.68a12.33,12.33,0,0,1,2.68-1.78,8.91,8.91,0,0,1,3-.87,2.84,2.84,0,0,1,1.6.36l.72-1.83q1.44-3.56,2.51-6.25A35.53,35.53,0,0,0,237.08,7.75ZM226.14,31a1.55,1.55,0,0,0,.65.08,3.67,3.67,0,0,0,.88-.15,7.42,7.42,0,0,0,.88-.31,2.54,2.54,0,0,0,.65-.38q.26-1.37.65-2.81t1-3.17l.24-.67.24-.67a2,2,0,0,0-.88,0l-.65.15a3.33,3.33,0,0,0-.59.23,4.09,4.09,0,0,0-.64.41q-.34.26-.8.65a4,4,0,0,0-.72.83,11.5,11.5,0,0,0-.82,1.37,12,12,0,0,0-.67,1.58,4.08,4.08,0,0,0-.24,1.5,1.79,1.79,0,0,0,.18.75A1.17,1.17,0,0,0,226.14,31Z"/><path class="cls-1" d="M29.6,50.76a2.21,2.21,0,0,1-1.51-.58L5.35,29A16.21,16.21,0,0,1,5.35,5,18.82,18.82,0,0,1,17.93,0h.3A19.1,19.1,0,0,1,29.66,3.74,18.93,18.93,0,0,1,40.78.18h.14a18.82,18.82,0,0,1,12.73,5A16.16,16.16,0,0,1,55,27.82L53.93,29,31.11,50.18A2.21,2.21,0,0,1,29.6,50.76ZM18.23,4.07A14.39,14.39,0,0,0,8.37,7.86a12.28,12.28,0,0,0,0,18.25L29.63,45.89,50.77,26.18a12.32,12.32,0,0,0-.14-18.12A14.79,14.79,0,0,0,31.1,7.89L19.92,18.28a2.24,2.24,0,0,1-3,0,2,2,0,0,1,0-2.91l9.51-8.84A14.54,14.54,0,0,0,18.23,4.07Z"/><path class="cls-1" d="M53.31,5.52A18.32,18.32,0,0,0,40.92.68h-.14A18.7,18.7,0,0,0,29.9,4.14a.46.46,0,0,1-.54,0A18.6,18.6,0,0,0,17.94.5,18.32,18.32,0,0,0,5.69,5.32a15.71,15.71,0,0,0,0,23.33L28.43,49.81a1.75,1.75,0,0,0,2.34,0l22.79-21.2,1-1.12A15.77,15.77,0,0,0,58.5,17h0A15.85,15.85,0,0,0,53.31,5.52Zm-2.15,21,0,0L29.92,46.26a.47.47,0,0,1-.62,0L8,26.48a12.78,12.78,0,0,1,0-19,14.89,14.89,0,0,1,10.2-3.92A15,15,0,0,1,26.8,6.19a.4.4,0,0,1,.18.3.39.39,0,0,1-.13.32l-9.6,8.93a1.46,1.46,0,0,0,0,2.18,1.75,1.75,0,0,0,2.34,0L30.76,7.51A15.29,15.29,0,0,1,51,7.69,12.82,12.82,0,0,1,51.16,26.5Z"/><path class="cls-1" d="M11.91,12.3a1.22,1.22,0,0,0,1.64,0l5.36-5a1,1,0,0,0,0-1.52h0a1.22,1.22,0,0,0-1.64,0l-5.36,5a1,1,0,0,0,0,1.52Z"/><path class="cls-1" d="M29.56,39a1.41,1.41,0,0,1-1-.38l-18-16.71a1.29,1.29,0,0,1,0-1.9,1.44,1.44,0,0,1,1.94,0l17,15.81L46.84,19.78a1.44,1.44,0,0,1,1.94,0,1.29,1.29,0,0,1,0,1.9l-18.25,17A1.42,1.42,0,0,1,29.56,39Z"/><path class="cls-1" d="M29.56,36.54,12.22,20.41a.94.94,0,0,0-1.26,0,.79.79,0,0,0,0,1.17L28.91,38.27h0a.94.94,0,0,0,1.26,0l18.25-17a.79.79,0,0,0,0-1.17.94.94,0,0,0-1.26,0Z"/></svg>