<svg id="Layer_1" data-name="Layer 1" xmlns="http://www.w3.org/2000/svg" viewBox="0 0 30 24"><defs><style>.cls-1{fill:#da4b58;}</style></defs><title>icons</title><path class="cls-1" d="M29.17.44a12.44,12.44,0,0,1-3.91,1.47A6.19,6.19,0,0,0,20.77,0a6.06,6.06,0,0,0-6,7.44A17.57,17.57,0,0,1,2.09,1.11a6,6,0,0,0-.83,3A6,6,0,0,0,4,9.2a6.21,6.21,0,0,1-2.79-.76v.08a6.09,6.09,0,0,0,4.94,5.94,6.28,6.28,0,0,1-2.78.1,6.15,6.15,0,0,0,5.75,4.21,12.48,12.48,0,0,1-7.65,2.59A12.78,12.78,0,0,1,0,21.28,17.64,17.64,0,0,0,9.44,24,17.25,17.25,0,0,0,26.95,6.76c0-.26,0-.52,0-.78A12.38,12.38,0,0,0,30,2.84a12.41,12.41,0,0,1-3.54,1A6.09,6.09,0,0,0,29.17.44Z"/></svg>