<svg id="Layer_1" data-name="Layer 1" xmlns="http://www.w3.org/2000/svg" viewBox="0 0 30 22"><defs><style>.cls-1{fill:#da4b58;}</style></defs><title>icons</title><g id="Lozenge"><path class="cls-1" d="M29.7,4.74a7,7,0,0,0-1.19-3.11,4.19,4.19,0,0,0-3-1.32C21.3,0,15,0,15,0h0S8.7,0,4.5.32a4.2,4.2,0,0,0-3,1.32A7,7,0,0,0,.3,4.74,49.16,49.16,0,0,0,0,9.81v2.37a49.18,49.18,0,0,0,.3,5.06,7,7,0,0,0,1.19,3.1A5,5,0,0,0,4.8,21.68C7.2,21.92,15,22,15,22s6.3,0,10.5-.33a4.2,4.2,0,0,0,3-1.33,7,7,0,0,0,1.19-3.1,49.19,49.19,0,0,0,.3-5.06V9.81A49.17,49.17,0,0,0,29.7,4.74ZM11.9,15.06V6.27L20,10.68Z"/></g></svg>